<svg xmlns="http://www.w3.org/2000/svg" xmlns:svg="http://www.w3.org/2000/svg" id="svg5" width="466.007" height="466.007" version="1.1" viewBox="0 0 123.298 123.298"><g style="display:inline" id="layer2" transform="translate(7.215891,-13.196477)"><path id="path2691" d="m 184.51497,599.83441 -53.26842,-37.36583 -52.811613,38.00874 37.365833,-53.26843 -38.008738,-52.81161 53.268428,37.36583 52.81161,-38.00874 -37.36583,53.26843 z" transform="matrix(0.45357635,0,0,0.48302392,-5.0551384,-189.42468)" style="fill:#000;fill-opacity:1;stroke:none;stroke-width:1.88976;stroke-miterlimit:4;stroke-dasharray:none;stroke-opacity:1"/><circle id="path25062" cx="54.433" cy="74.845" r="30" style="fill:none;fill-opacity:1;stroke:#000;stroke-width:.5;stroke-miterlimit:4;stroke-dasharray:none;stroke-opacity:1"/><circle id="circle25206" cx="54.433" cy="74.845" r="34.781" style="fill:none;fill-opacity:1;stroke:#000;stroke-width:.579683;stroke-miterlimit:4;stroke-dasharray:none;stroke-opacity:1"/></g><g style="display:inline" id="layer1" transform="translate(7.215891,-13.196477)"><path id="path846" d="M 205.73099,459.03726 180.8186,307.79248 29.573822,282.8801 180.8186,257.96771 l 24.91238,-151.24478 24.91239,151.24478 151.24478,24.91238 -151.24478,24.91239 z" transform="scale(0.26458333)" style="fill:none;stroke:#000;stroke-width:1.88976;stroke-miterlimit:4;stroke-dasharray:none;stroke-opacity:1"/><path id="path991" d="m 54.432988,28.237108 2e-6,93.216502" style="fill:none;stroke:#000;stroke-width:.264583px;stroke-linecap:butt;stroke-linejoin:miter;stroke-opacity:1"/><path id="path993" d="m 7.8247403,74.845359 93.2164997,-3e-6" style="fill:none;stroke:#000;stroke-width:.264583px;stroke-linecap:butt;stroke-linejoin:miter;stroke-opacity:1"/><path id="path995" d="M 47.841587,68.253956 C 61.024391,81.436759 61.024391,81.436759 61.024391,81.436759" style="fill:none;stroke:#000;stroke-width:.264583px;stroke-linecap:butt;stroke-linejoin:miter;stroke-opacity:1"/><path id="path997" d="M 61.024391,68.253956 47.841587,81.436759" style="fill:red;stroke:#000;stroke-width:.264583px;stroke-linecap:butt;stroke-linejoin:miter;stroke-opacity:1"/><path id="path1073" d="m 193.43534,269.62014 c -6.2322,-6.23407 -11.33698,-11.55089 -11.34397,-11.81517 -0.007,-0.26428 5.0921,-31.50414 11.33128,-69.4219 l 11.34397,-68.9414 0.0816,40.4123 c 0.0449,22.22675 0.0449,58.56721 0,80.75656 l -0.0816,40.34427 z" transform="scale(0.26458333)" style="fill:red;stroke:#000;stroke-width:.607473;stroke-miterlimit:4;stroke-dasharray:none;stroke-opacity:1"/><path id="path1186" d="m 206.57191,200.26456 c 0.0205,-44.46429 0.0937,-80.62717 0.16276,-80.36197 0.27012,1.03808 22.62323,137.13728 22.62323,137.74386 0,0.42036 -3.98335,4.62794 -11.41164,12.05401 l -11.41164,11.40825 z" transform="scale(0.26458333)" style="fill:#a00;stroke:#000;stroke-width:.607473;stroke-miterlimit:4;stroke-dasharray:none;stroke-opacity:1"/><path id="path1336" d="m 206.57191,365.49565 -0.0373,-80.84415 11.41164,11.40825 c 7.42829,7.42607 11.41164,11.63365 11.41164,12.05401 0,0.60657 -22.35311,136.70578 -22.62323,137.74386 -0.069,0.2652 -0.14225,-35.89769 -0.16276,-80.36197 z" transform="scale(0.26458333)" style="fill:#00f;stroke:#000;stroke-width:.607473;stroke-miterlimit:4;stroke-dasharray:none;stroke-opacity:1"/><path id="path1412" d="M 193.41121,377.30741 C 187.17832,339.428 182.08439,308.218 182.09137,307.95187 c 0.007,-0.26613 5.14794,-5.61759 11.42434,-11.89212 l 11.41164,-11.40825 v 80.76379 c 0,44.42008 -0.0413,80.76378 -0.0918,80.76378 -0.0505,0 -5.19144,-30.99224 -11.42433,-68.87166 z" transform="scale(0.26458333)" style="fill:#00a;fill-opacity:1;stroke:#000;stroke-width:.607473;stroke-miterlimit:4;stroke-dasharray:none;stroke-opacity:1"/><path id="path2360" d="m 41.628379,282.04372 c 0.2652,-0.0654 31.724078,-5.25942 69.908621,-11.5423 l 69.42643,-11.4234 11.57959,11.57959 11.57958,11.57958 -81.4882,-0.0373 c -44.818513,-0.0205 -81.271221,-0.0908 -81.006021,-0.15619 z" transform="scale(0.26458333)" style="fill:none;fill-opacity:1;stroke:#000;stroke-width:.607473;stroke-miterlimit:4;stroke-dasharray:none;stroke-opacity:1"/><path id="path2436" d="m 111.38404,295.24525 c -37.746813,-6.24278 -68.992206,-11.41247 -69.434206,-11.48821 -0.442001,-0.0757 35.865552,-0.15937 80.683446,-0.18586 l 81.48708,-0.0482 -11.56902,11.57237 c -6.36296,6.3648 -11.78675,11.55617 -12.05287,11.53638 -0.26612,-0.0198 -31.36762,-5.14373 -69.11443,-11.38651 z" transform="scale(0.26458333)" style="fill:#000;fill-opacity:1;stroke:#000;stroke-width:.607473;stroke-miterlimit:4;stroke-dasharray:none;stroke-opacity:1"/><path id="path2475" d="m 218.92415,270.65241 11.58478,-11.58478 69.42124,11.42566 c 38.18168,6.28411 69.63822,11.48048 69.90342,11.54749 0.2652,0.067 -36.18751,0.13862 -81.00602,0.15913 l -81.4882,0.0373 z" transform="scale(0.26458333)" style="fill:#000;fill-opacity:1;stroke:#000;stroke-width:.607473;stroke-miterlimit:4;stroke-dasharray:none;stroke-opacity:1"/><path id="path2514" d="m 218.91063,295.09538 -11.56902,-11.57237 81.48708,0.0373 c 44.81789,0.0205 81.2701,0.0921 81.0049,0.15913 -0.42568,0.10756 -139.03687,22.94832 -139.26393,22.94832 -0.0495,0 -5.29607,-5.20757 -11.65903,-11.57237 z" transform="scale(0.26458333)" style="fill:none;fill-opacity:1;stroke:#000;stroke-width:.607473;stroke-miterlimit:4;stroke-dasharray:none;stroke-opacity:1"/><path id="path2999" d="m 51.111292,281.19388 c 0.5304,-0.13818 29.895283,-5.01467 65.255298,-10.83664 l 64.29093,-10.5854 10.92713,10.91122 10.92713,10.91123 -76.18242,-0.0746 c -41.900341,-0.041 -75.748469,-0.18764 -75.218068,-0.32583 z" transform="scale(0.26458333)" style="fill:#fff;fill-opacity:1;stroke:none;stroke-width:1.21495;stroke-miterlimit:4;stroke-dasharray:none;stroke-opacity:1"/><path id="path3075" d="m 219.88208,295.10818 -10.92236,-10.94226 76.17766,0.0508 c 41.89771,0.0279 75.88835,0.15784 75.53475,0.28872 -0.3536,0.13088 -28.99521,4.88871 -63.64802,10.57296 -34.65281,5.68424 -63.72839,10.47833 -64.61239,10.65353 -1.3859,0.27467 -3.11163,-1.18855 -12.52964,-10.62371 z" transform="scale(0.26458333)" style="fill:#fff;fill-opacity:1;stroke:none;stroke-width:1.21495;stroke-miterlimit:4;stroke-dasharray:none;stroke-opacity:1"/><text id="text29322" x="50.475" y="25.954" xml:space="preserve" style="font-style:normal;font-weight:400;font-size:10.5833px;line-height:1.25;font-family:sans-serif;fill:#000;fill-opacity:1;stroke:none;stroke-width:.264583"><tspan style="stroke-width:.264583" id="tspan29320" x="50.475" y="25.954">N</tspan></text><text id="text33982" x="51.02" y="131.418" xml:space="preserve" style="font-style:normal;font-weight:400;font-size:10.5833px;line-height:1.25;font-family:sans-serif;fill:#000;fill-opacity:1;stroke:none;stroke-width:.264583"><tspan style="stroke-width:.264583" id="tspan33980" x="51.02" y="131.418">S</tspan></text><text id="text37802" x="104.542" y="78.703" xml:space="preserve" style="font-style:normal;font-weight:400;font-size:10.5833px;line-height:1.25;font-family:sans-serif;fill:#000;fill-opacity:1;stroke:none;stroke-width:.264583"><tspan style="stroke-width:.264583" id="tspan37800" x="104.542" y="78.703">E</tspan></text><text id="text39852" x="-4.154" y="78.703" xml:space="preserve" style="font-style:normal;font-weight:400;font-size:10.5833px;line-height:1.25;font-family:sans-serif;fill:#000;fill-opacity:1;stroke:none;stroke-width:.264583"><tspan style="stroke-width:.264583" id="tspan39850" x="-4.154" y="78.703">W</tspan></text></g></svg>